name Walk8.mot
datacolumns 19
datarows 25
range 1.65700000 1.68100000
endheader

                time	   L_ground_force_vx	   L_ground_force_vy	   L_ground_force_vz	   L_ground_force_px	   L_ground_force_py	   L_ground_force_pz	   R_ground_force_vx	   R_ground_force_vy	   R_ground_force_vz	   R_ground_force_px	   R_ground_force_py	   R_ground_force_pz	   L_ground_torque_x	   L_ground_torque_y	   L_ground_torque_z	   R_ground_torque_x	   R_ground_torque_y	   R_ground_torque_z	
          1.65700000	          0.00000000	          0.00000000	          0.00000000	          0.00000000	          0.00000000	          0.00000000	          1.95806372	        688.79642455	         43.47717017	         -0.30466783	          0.00000000	         -0.07823076	          0.00000000	          0.00000000	          0.00000000	          0.00000000	          0.73872166	          0.00000000	
          1.65800000	          0.00000000	          0.00000000	          0.00000000	          0.00000000	          0.00000000	          0.00000000	          2.57748361	        690.43729472	         43.47276811	         -0.30429167	          0.00000000	         -0.07817141	          0.00000000	          0.00000000	          0.00000000	          0.00000000	          0.76640114	          0.00000000	
          1.65900000	          0.00000000	          0.00000000	          0.00000000	          0.00000000	          0.00000000	          0.00000000	          3.21459044	        692.01378680	         43.47672883	         -0.30389906	          0.00000000	         -0.07812054	          0.00000000	          0.00000000	          0.00000000	          0.00000000	          0.79678323	          0.00000000	
          1.66000000	          0.00000000	          0.00000000	          0.00000000	          0.00000000	          0.00000000	          0.00000000	          3.87616991	        693.53495371	         43.48968321	         -0.30353144	          0.00000000	         -0.07808027	          0.00000000	          0.00000000	          0.00000000	          0.00000000	          0.82724909	          0.00000000	
          1.66100000	          0.00000000	          0.00000000	          0.00000000	          0.00000000	          0.00000000	          0.00000000	          4.56252205	        695.02855926	         43.51343711	         -0.30321954	          0.00000000	         -0.07806098	          0.00000000	          0.00000000	          0.00000000	          0.00000000	          0.85386921	          0.00000000	
          1.66200000	          0.00000000	          0.00000000	          0.00000000	          0.00000000	          0.00000000	          0.00000000	          5.27044115	        696.53702071	         43.54942469	         -0.30296784	          0.00000000	         -0.07806729	          0.00000000	          0.00000000	          0.00000000	          0.00000000	          0.87463534	          0.00000000	
          1.66300000	          0.00000000	          0.00000000	          0.00000000	          0.00000000	          0.00000000	          0.00000000	          5.99168233	        698.11604751	         43.59214999	         -0.30275429	          0.00000000	         -0.07807653	          0.00000000	          0.00000000	          0.00000000	          0.00000000	          0.88859148	          0.00000000	
          1.66400000	          0.00000000	          0.00000000	          0.00000000	          0.00000000	          0.00000000	          0.00000000	          6.70988229	        699.81118754	         43.63274343	         -0.30254319	          0.00000000	         -0.07805298	          0.00000000	          0.00000000	          0.00000000	          0.00000000	          0.89305564	          0.00000000	
          1.66500000	          0.00000000	          0.00000000	          0.00000000	          0.00000000	          0.00000000	          0.00000000	          7.41307376	        701.61585300	         43.66790668	         -0.30230661	          0.00000000	         -0.07798480	          0.00000000	          0.00000000	          0.00000000	          0.00000000	          0.88639833	          0.00000000	
          1.66600000	          0.00000000	          0.00000000	          0.00000000	          0.00000000	          0.00000000	          0.00000000	          8.10816218	        703.47534009	         43.70291179	         -0.30203828	          0.00000000	         -0.07788818	          0.00000000	          0.00000000	          0.00000000	          0.00000000	          0.87166945	          0.00000000	
          1.66700000	          0.00000000	          0.00000000	          0.00000000	          0.00000000	          0.00000000	          0.00000000	          8.81507754	        705.34113535	         43.74044962	         -0.30174807	          0.00000000	         -0.07779139	          0.00000000	          0.00000000	          0.00000000	          0.00000000	          0.85544888	          0.00000000	
          1.66800000	          0.00000000	          0.00000000	          0.00000000	          0.00000000	          0.00000000	          0.00000000	          9.54533932	        707.18711844	         43.77152771	         -0.30144809	          0.00000000	         -0.07772717	          0.00000000	          0.00000000	          0.00000000	          0.00000000	          0.84382198	          0.00000000	
          1.66900000	          0.00000000	          0.00000000	          0.00000000	          0.00000000	          0.00000000	          0.00000000	         10.28970440	        708.98084574	         43.79027467	         -0.30114746	          0.00000000	         -0.07771274	          0.00000000	          0.00000000	          0.00000000	          0.00000000	          0.83812718	          0.00000000	
          1.67000000	          0.00000000	          0.00000000	          0.00000000	          0.00000000	          0.00000000	          0.00000000	         11.03208959	        710.68328938	         43.80422657	         -0.30085328	          0.00000000	         -0.07773200	          0.00000000	          0.00000000	          0.00000000	          0.00000000	          0.83526495	          0.00000000	
          1.67100000	          0.00000000	          0.00000000	          0.00000000	          0.00000000	          0.00000000	          0.00000000	         11.76841043	        712.26970514	         43.81779782	         -0.30057234	          0.00000000	         -0.07775505	          0.00000000	          0.00000000	          0.00000000	          0.00000000	          0.83296522	          0.00000000	
          1.67200000	          0.00000000	          0.00000000	          0.00000000	          0.00000000	          0.00000000	          0.00000000	         12.50612359	        713.73919587	         43.82135787	         -0.30031073	          0.00000000	         -0.07776219	          0.00000000	          0.00000000	          0.00000000	          0.00000000	          0.83256915	          0.00000000	
          1.67300000	          0.00000000	          0.00000000	          0.00000000	          0.00000000	          0.00000000	          0.00000000	         13.25067393	        715.13914621	         43.80538510	         -0.30006918	          0.00000000	         -0.07773005	          0.00000000	          0.00000000	          0.00000000	          0.00000000	          0.83683176	          0.00000000	
          1.67400000	          0.00000000	          0.00000000	          0.00000000	          0.00000000	          0.00000000	          0.00000000	         13.99278000	        716.57116051	         43.77682537	         -0.29984089	          0.00000000	         -0.07762410	          0.00000000	          0.00000000	          0.00000000	          0.00000000	          0.84772533	          0.00000000	
          1.67500000	          0.00000000	          0.00000000	          0.00000000	          0.00000000	          0.00000000	          0.00000000	         14.71394651	        718.12953945	         43.75277484	         -0.29961259	          0.00000000	         -0.07744159	          0.00000000	          0.00000000	          0.00000000	          0.00000000	          0.86567188	          0.00000000	
          1.67600000	          0.00000000	          0.00000000	          0.00000000	          0.00000000	          0.00000000	          0.00000000	         15.40818095	        719.84259099	         43.74113490	         -0.29937244	          0.00000000	         -0.07723152	          0.00000000	          0.00000000	          0.00000000	          0.00000000	          0.88680929	          0.00000000	
          1.67700000	          0.00000000	          0.00000000	          0.00000000	          0.00000000	          0.00000000	          0.00000000	         16.08997983	        721.67852117	         43.73384125	         -0.29912323	          0.00000000	         -0.07704930	          0.00000000	          0.00000000	          0.00000000	          0.00000000	          0.90154458	          0.00000000	
          1.67800000	          0.00000000	          0.00000000	          0.00000000	          0.00000000	          0.00000000	          0.00000000	         16.77851032	        723.57466157	         43.71545867	         -0.29887928	          0.00000000	         -0.07692717	          0.00000000	          0.00000000	          0.00000000	          0.00000000	          0.90153069	          0.00000000	
          1.67900000	          0.00000000	          0.00000000	          0.00000000	          0.00000000	          0.00000000	          0.00000000	         17.48311981	        725.44948982	         43.67479896	         -0.29864812	          0.00000000	         -0.07687741	          0.00000000	          0.00000000	          0.00000000	          0.00000000	          0.88876503	          0.00000000	
          1.68000000	          0.00000000	          0.00000000	          0.00000000	          0.00000000	          0.00000000	          0.00000000	         18.20529828	        727.22137949	         43.61228912	         -0.29842643	          0.00000000	         -0.07688216	          0.00000000	          0.00000000	          0.00000000	          0.00000000	          0.87403573	          0.00000000	
          1.68100000	          0.00000000	          0.00000000	          0.00000000	          0.00000000	          0.00000000	          0.00000000	         18.93940459	        728.85552015	         43.54127386	         -0.29821307	          0.00000000	         -0.07689807	          0.00000000	          0.00000000	          0.00000000	          0.00000000	          0.86756018	          0.00000000	
